<svg id="visual" viewBox="0 0 1366 768" width="1366" height="768" xmlns="http://www.w3.org/2000/svg" xmlns:xlink="http://www.w3.org/1999/xlink" version="1.1"><rect width="1366" height="768" fill="#001829"></rect><g><g transform="translate(809 209)"><path d="M0 -200.8L173.9 -100.4L173.9 100.4L0 200.8L-173.9 100.4L-173.9 -100.4Z" stroke="#7c29a6" fill="none" stroke-width="2"></path></g><g transform="translate(671 710)"><path d="M0 -100L86.6 -50L86.6 50L0 100L-86.6 50L-86.6 -50Z" stroke="#7c29a6" fill="none" stroke-width="2"></path></g><g transform="translate(1211 290)"><path d="M0 -47L40.7 -23.5L40.7 23.5L0 47L-40.7 23.5L-40.7 -23.5Z" stroke="#7c29a6" fill="none" stroke-width="2"></path></g><g transform="translate(103 451)"><path d="M0 -56L48.5 -28L48.5 28L0 56L-48.5 28L-48.5 -28Z" stroke="#7c29a6" fill="none" stroke-width="2"></path></g><g transform="translate(1275 766)"><path d="M0 -86L74.5 -43L74.5 43L0 86L-74.5 43L-74.5 -43Z" stroke="#7c29a6" fill="none" stroke-width="2"></path></g><g transform="translate(397 157)"><path d="M0 -153L132.5 -76.5L132.5 76.5L0 153L-132.5 76.5L-132.5 -76.5Z" stroke="#7c29a6" fill="none" stroke-width="2"></path></g></g></svg>